<svg xmlns="http://www.w3.org/2000/svg" xmlns:xlink="http://www.w3.org/1999/xlink" contentStyleType="text/css" data-diagram-type="DESCRIPTION" height="465px" preserveAspectRatio="none" style="width:1606px;height:465px;background:#777777;" version="1.1" viewBox="0 0 1606 465" width="1606px" zoomAndPan="magnify"><title>Project Structure &amp; File Relationships</title><defs/><g><rect fill="#777777" height="465" style="stroke:none;stroke-width:1;" width="1606" x="0" y="0"/><g class="title" data-source-line="2"><text fill="#000000" font-family="sans-serif" font-size="14" font-weight="bold" lengthAdjust="spacing" textLength="257.4941" x="667.7052" y="24.9659">Project Structure &amp; File Relationships</text></g><!--cluster Project Root--><g class="cluster" data-entity="Project Root" data-source-line="5" data-uid="ent0002" id="cluster_Project Root"><path d="M8.5,80.0479 L94.6582,80.0479 A3.75,3.75 0 0 1 97.1582,82.5479 L104.1582,105.1158 L1337.5,105.1158 A2.5,2.5 0 0 1 1340,107.6158 L1340,455.9879 A2.5,2.5 0 0 1 1337.5,458.4879 L8.5,458.4879 A2.5,2.5 0 0 1 6,455.9879 L6,82.5479 A2.5,2.5 0 0 1 8.5,80.0479" fill="none" style="stroke:#000000;stroke-width:1.5;"/><line style="stroke:#000000;stroke-width:1.5;" x1="6" x2="104.1582" y1="105.1158" y2="105.1158"/><text fill="#000000" font-family="sans-serif" font-size="14" font-weight="bold" lengthAdjust="spacing" textLength="85.1582" x="10" y="97.0139">Project Root</text></g><!--cluster data--><g class="cluster" data-entity="data" data-source-line="8" data-uid="ent0003" id="cluster_data"><path d="M32.5,172.0479 L64.6219,172.0479 A3.75,3.75 0 0 1 67.1219,174.5479 L74.1219,197.1158 L307.5,197.1158 A2.5,2.5 0 0 1 310,199.6158 L310,262.6179 A2.5,2.5 0 0 1 307.5,265.1179 L32.5,265.1179 A2.5,2.5 0 0 1 30,262.6179 L30,174.5479 A2.5,2.5 0 0 1 32.5,172.0479" fill="none" style="stroke:#000000;stroke-width:1.5;"/><line style="stroke:#000000;stroke-width:1.5;" x1="30" x2="74.1219" y1="197.1158" y2="197.1158"/><text fill="#000000" font-family="sans-serif" font-size="14" font-weight="bold" lengthAdjust="spacing" textLength="31.1219" x="34" y="189.0139">data</text></g><!--cluster output--><g class="cluster" data-entity="output" data-source-line="13" data-uid="ent0005" id="cluster_output"><path d="M336.5,172.0479 L384.6168,172.0479 A3.75,3.75 0 0 1 387.1168,174.5479 L394.1168,197.1158 L475.5,197.1158 A2.5,2.5 0 0 1 478,199.6158 L478,262.6179 A2.5,2.5 0 0 1 475.5,265.1179 L336.5,265.1179 A2.5,2.5 0 0 1 334,262.6179 L334,174.5479 A2.5,2.5 0 0 1 336.5,172.0479" fill="none" style="stroke:#000000;stroke-width:1.5;"/><line style="stroke:#000000;stroke-width:1.5;" x1="334" x2="394.1168" y1="197.1158" y2="197.1158"/><text fill="#000000" font-family="sans-serif" font-size="14" font-weight="bold" lengthAdjust="spacing" textLength="47.1168" x="338" y="189.0139">output</text></g><!--cluster docs--><g class="cluster" data-entity="docs" data-source-line="18" data-uid="ent0007" id="cluster_docs"><path d="M504.5,126.0479 L537.7559,126.0479 A3.75,3.75 0 0 1 540.2559,128.5479 L547.2559,151.1158 L771.5,151.1158 A2.5,2.5 0 0 1 774,153.6158 L774,431.9879 A2.5,2.5 0 0 1 771.5,434.4879 L504.5,434.4879 A2.5,2.5 0 0 1 502,431.9879 L502,128.5479 A2.5,2.5 0 0 1 504.5,126.0479" fill="none" style="stroke:#000000;stroke-width:1.5;"/><line style="stroke:#000000;stroke-width:1.5;" x1="502" x2="547.2559" y1="151.1158" y2="151.1158"/><text fill="#000000" font-family="sans-serif" font-size="14" font-weight="bold" lengthAdjust="spacing" textLength="32.2559" x="506" y="143.0139">docs</text></g><!--cluster diagrams--><g class="cluster" data-entity="diagrams" data-source-line="19" data-uid="ent0008" id="cluster_diagrams"><path d="M528.5,172.0479 L595.1178,172.0479 A3.75,3.75 0 0 1 597.6178,174.5479 L604.6178,197.1158 L747.5,197.1158 A2.5,2.5 0 0 1 750,199.6158 L750,407.9879 A2.5,2.5 0 0 1 747.5,410.4879 L528.5,410.4879 A2.5,2.5 0 0 1 526,407.9879 L526,174.5479 A2.5,2.5 0 0 1 528.5,172.0479" fill="none" style="stroke:#000000;stroke-width:1.5;"/><line style="stroke:#000000;stroke-width:1.5;" x1="526" x2="604.6178" y1="197.1158" y2="197.1158"/><text fill="#000000" font-family="sans-serif" font-size="14" font-weight="bold" lengthAdjust="spacing" textLength="65.6178" x="530" y="189.0139">diagrams</text></g><!--cluster include--><g class="cluster" data-entity="include" data-source-line="28" data-uid="ent0013" id="cluster_include"><path d="M887.5,315.2679 L939.3163,315.2679 A3.75,3.75 0 0 1 941.8163,317.7679 L948.8163,340.3358 L1066.5,340.3358 A2.5,2.5 0 0 1 1069,342.8358 L1069,410.1379 A2.5,2.5 0 0 1 1066.5,412.6379 L887.5,412.6379 A2.5,2.5 0 0 1 885,410.1379 L885,317.7679 A2.5,2.5 0 0 1 887.5,315.2679" fill="none" style="stroke:#000000;stroke-width:1.5;"/><line style="stroke:#000000;stroke-width:1.5;" x1="885" x2="948.8163" y1="340.3358" y2="340.3358"/><text fill="#000000" font-family="sans-serif" font-size="14" font-weight="bold" lengthAdjust="spacing" textLength="50.8163" x="889" y="332.2339">include</text></g><!--cluster src--><g class="cluster" data-entity="src" data-source-line="33" data-uid="ent0015" id="cluster_src"><path d="M800.5,169.8979 L822.0204,169.8979 A3.75,3.75 0 0 1 824.5204,172.3979 L831.5204,194.9658 L1117.5,194.9658 A2.5,2.5 0 0 1 1120,197.4658 L1120,264.7679 A2.5,2.5 0 0 1 1117.5,267.2679 L800.5,267.2679 A2.5,2.5 0 0 1 798,264.7679 L798,172.3979 A2.5,2.5 0 0 1 800.5,169.8979" fill="none" style="stroke:#000000;stroke-width:1.5;"/><line style="stroke:#000000;stroke-width:1.5;" x1="798" x2="831.5204" y1="194.9658" y2="194.9658"/><text fill="#000000" font-family="sans-serif" font-size="14" font-weight="bold" lengthAdjust="spacing" textLength="20.5204" x="802" y="186.8639">src</text></g><!--cluster build--><g class="cluster" data-entity="build" data-source-line="39" data-uid="ent0018" id="cluster_build"><path d="M1146.5,172.0479 L1182.7834,172.0479 A3.75,3.75 0 0 1 1185.2834,174.5479 L1192.2834,197.1158 L1313.5,197.1158 A2.5,2.5 0 0 1 1316,199.6158 L1316,262.6179 A2.5,2.5 0 0 1 1313.5,265.1179 L1146.5,265.1179 A2.5,2.5 0 0 1 1144,262.6179 L1144,174.5479 A2.5,2.5 0 0 1 1146.5,172.0479" fill="none" style="stroke:#000000;stroke-width:1.5;"/><line style="stroke:#000000;stroke-width:1.5;" x1="1144" x2="1192.2834" y1="197.1158" y2="197.1158"/><text fill="#000000" font-family="sans-serif" font-size="14" font-weight="bold" lengthAdjust="spacing" textLength="35.2834" x="1148" y="189.0139">build</text></g><!--entity CS210_Project_Three_Input_File.txt--><g class="entity" data-entity="CS210_Project_Three_Input_File.txt" data-source-line="9" data-uid="ent0004" id="entity_CS210_Project_Three_Input_File.txt"><path d="M45.6,212.5479 L45.6,246.6158 A2.5,2.5 0 0 0 48.1,249.1158 L291.9011,249.1158 A2.5,2.5 0 0 0 294.4011,246.6158 L294.4011,220.0479 L284.4011,210.0479 L48.1,210.0479 A2.5,2.5 0 0 0 45.6,212.5479" fill="#F1F1F1" style="stroke:#181818;stroke-width:0.5;"/><path d="M284.4011,210.0479 L284.4011,217.5479 A2.5,2.5 0 0 0 286.9011,220.0479 L294.4011,220.0479" fill="#F1F1F1" style="stroke:#181818;stroke-width:0.5;"/><text fill="#000000" font-family="sans-serif" font-size="14" lengthAdjust="spacing" textLength="228.8011" x="55.6" y="235.0139">CS210_Project_Three_Input_File.txt</text></g><!--entity frequency.dat--><g class="entity" data-entity="frequency.dat" data-source-line="14" data-uid="ent0006" id="entity_frequency.dat"><path d="M350.28,212.5479 L350.28,246.6158 A2.5,2.5 0 0 0 352.78,249.1158 L459.2136,249.1158 A2.5,2.5 0 0 0 461.7136,246.6158 L461.7136,220.0479 L451.7136,210.0479 L352.78,210.0479 A2.5,2.5 0 0 0 350.28,212.5479" fill="#F1F1F1" style="stroke:#181818;stroke-width:0.5;"/><path d="M451.7136,210.0479 L451.7136,217.5479 A2.5,2.5 0 0 0 454.2136,220.0479 L461.7136,220.0479" fill="#F1F1F1" style="stroke:#181818;stroke-width:0.5;"/><text fill="#000000" font-family="sans-serif" font-size="14" lengthAdjust="spacing" textLength="91.4336" x="360.28" y="235.0139">frequency.dat</text></g><!--entity files.puml--><g class="entity" data-entity="files.puml" data-source-line="20" data-uid="ent0009" id="entity_files.puml"><path d="M541.82,212.5479 L541.82,246.6158 A2.5,2.5 0 0 0 544.32,249.1158 L623.6777,249.1158 A2.5,2.5 0 0 0 626.1777,246.6158 L626.1777,220.0479 L616.1777,210.0479 L544.32,210.0479 A2.5,2.5 0 0 0 541.82,212.5479" fill="#F1F1F1" style="stroke:#181818;stroke-width:0.5;"/><path d="M616.1777,210.0479 L616.1777,217.5479 A2.5,2.5 0 0 0 618.6777,220.0479 L626.1777,220.0479" fill="#F1F1F1" style="stroke:#181818;stroke-width:0.5;"/><text fill="#000000" font-family="sans-serif" font-size="14" lengthAdjust="spacing" textLength="64.3577" x="551.82" y="235.0139">files.puml</text></g><!--entity files.svg--><g class="entity" data-entity="files.svg" data-source-line="21" data-uid="ent0010" id="entity_files.svg"><path d="M661.59,212.5479 L661.59,246.6158 A2.5,2.5 0 0 0 664.09,249.1158 L731.9118,249.1158 A2.5,2.5 0 0 0 734.4118,246.6158 L734.4118,220.0479 L724.4118,210.0479 L664.09,210.0479 A2.5,2.5 0 0 0 661.59,212.5479" fill="#F1F1F1" style="stroke:#181818;stroke-width:0.5;"/><path d="M724.4118,210.0479 L724.4118,217.5479 A2.5,2.5 0 0 0 726.9118,220.0479 L734.4118,220.0479" fill="#F1F1F1" style="stroke:#181818;stroke-width:0.5;"/><text fill="#000000" font-family="sans-serif" font-size="14" lengthAdjust="spacing" textLength="52.8218" x="671.59" y="235.0139">files.svg</text></g><!--entity uml.puml--><g class="entity" data-entity="uml.puml" data-source-line="22" data-uid="ent0011" id="entity_uml.puml"><path d="M542.47,357.9179 L542.47,391.9858 A2.5,2.5 0 0 0 544.97,394.4858 L623.0397,394.4858 A2.5,2.5 0 0 0 625.5397,391.9858 L625.5397,365.4179 L615.5397,355.4179 L544.97,355.4179 A2.5,2.5 0 0 0 542.47,357.9179" fill="#F1F1F1" style="stroke:#181818;stroke-width:0.5;"/><path d="M615.5397,355.4179 L615.5397,362.9179 A2.5,2.5 0 0 0 618.0397,365.4179 L625.5397,365.4179" fill="#F1F1F1" style="stroke:#181818;stroke-width:0.5;"/><text fill="#000000" font-family="sans-serif" font-size="14" lengthAdjust="spacing" textLength="63.0697" x="552.47" y="380.3839">uml.puml</text></g><!--entity uml.svg--><g class="entity" data-entity="uml.svg" data-source-line="23" data-uid="ent0012" id="entity_uml.svg"><path d="M660.23,357.9179 L660.23,391.9858 A2.5,2.5 0 0 0 662.73,394.4858 L729.2638,394.4858 A2.5,2.5 0 0 0 731.7638,391.9858 L731.7638,365.4179 L721.7638,355.4179 L662.73,355.4179 A2.5,2.5 0 0 0 660.23,357.9179" fill="#F1F1F1" style="stroke:#181818;stroke-width:0.5;"/><path d="M721.7638,355.4179 L721.7638,362.9179 A2.5,2.5 0 0 0 724.2638,365.4179 L731.7638,365.4179" fill="#F1F1F1" style="stroke:#181818;stroke-width:0.5;"/><text fill="#000000" font-family="sans-serif" font-size="14" lengthAdjust="spacing" textLength="51.5338" x="670.23" y="380.3839">uml.svg</text></g><!--entity HeaderFile--><g class="entity" data-entity="HeaderFile" data-source-line="29" data-uid="ent0014" id="entity_HeaderFile"><rect fill="#2E2E2E" height="43.3687" rx="2.5" ry="2.5" style="stroke:#1B1B1B;stroke-width:0.5;" width="152.2021" x="900.9" y="353.2679"/><rect fill="#2E2E2E" height="10" style="stroke:#1B1B1B;stroke-width:0.5;" width="15" x="1033.1021" y="358.2679"/><rect fill="#2E2E2E" height="2" style="stroke:#1B1B1B;stroke-width:0.5;" width="4" x="1031.1021" y="360.2679"/><rect fill="#2E2E2E" height="2" style="stroke:#1B1B1B;stroke-width:0.5;" width="4" x="1031.1021" y="364.2679"/><text fill="#FFFFFF" font-family="Verdana" font-size="11" lengthAdjust="spacing" textLength="112.2021" x="915.9" y="384.327">ProduceFrequency.h</text></g><!--entity SourceFile--><g class="entity" data-entity="SourceFile" data-source-line="34" data-uid="ent0016" id="entity_SourceFile"><rect fill="#2E2E2E" height="43.3687" rx="2.5" ry="2.5" style="stroke:#1B1B1B;stroke-width:0.5;" width="164.6792" x="813.66" y="207.8979"/><rect fill="#2E2E2E" height="10" style="stroke:#1B1B1B;stroke-width:0.5;" width="15" x="958.3392" y="212.8979"/><rect fill="#2E2E2E" height="2" style="stroke:#1B1B1B;stroke-width:0.5;" width="4" x="956.3392" y="214.8979"/><rect fill="#2E2E2E" height="2" style="stroke:#1B1B1B;stroke-width:0.5;" width="4" x="956.3392" y="218.8979"/><text fill="#FFFFFF" font-family="Verdana" font-size="11" lengthAdjust="spacing" textLength="124.6792" x="828.66" y="238.957">ProduceFrequency.cpp</text></g><!--entity MainFile--><g class="entity" data-entity="MainFile" data-source-line="35" data-uid="ent0017" id="entity_MainFile"><rect fill="#2E2E2E" height="43.3687" rx="2.5" ry="2.5" style="stroke:#1B1B1B;stroke-width:0.5;" width="90.7246" x="1013.64" y="207.8979"/><rect fill="#2E2E2E" height="10" style="stroke:#1B1B1B;stroke-width:0.5;" width="15" x="1084.3646" y="212.8979"/><rect fill="#2E2E2E" height="2" style="stroke:#1B1B1B;stroke-width:0.5;" width="4" x="1082.3646" y="214.8979"/><rect fill="#2E2E2E" height="2" style="stroke:#1B1B1B;stroke-width:0.5;" width="4" x="1082.3646" y="218.8979"/><text fill="#FFFFFF" font-family="Verdana" font-size="11" lengthAdjust="spacing" textLength="50.7246" x="1028.64" y="238.957">main.cpp</text></g><!--entity producefrequency--><g class="entity" data-entity="producefrequency" data-source-line="40" data-uid="ent0019" id="entity_producefrequency"><path d="M1159.55,212.5479 L1159.55,246.6158 A2.5,2.5 0 0 0 1162.05,249.1158 L1297.9535,249.1158 A2.5,2.5 0 0 0 1300.4535,246.6158 L1300.4535,220.0479 L1290.4535,210.0479 L1162.05,210.0479 A2.5,2.5 0 0 0 1159.55,212.5479" fill="#F1F1F1" style="stroke:#181818;stroke-width:0.5;"/><path d="M1290.4535,210.0479 L1290.4535,217.5479 A2.5,2.5 0 0 0 1292.9535,220.0479 L1300.4535,220.0479" fill="#F1F1F1" style="stroke:#181818;stroke-width:0.5;"/><text fill="#000000" font-family="sans-serif" font-size="14" lengthAdjust="spacing" textLength="120.9035" x="1169.55" y="235.0139">producefrequency</text></g><g class="entity" data-entity="GMN22" data-source-line="49" data-uid="ent0023" id="entity_GMN22"><path d="M1356.09,211.2179 L1356.09,247.9552 L1599.9045,247.9552 L1599.9045,221.2179 L1589.9045,211.2179 L1356.09,211.2179" fill="#880000" style="stroke:#330000;stroke-width:0.5;"/><path d="M1589.9045,211.2179 L1589.9045,221.2179 L1599.9045,221.2179 L1589.9045,211.2179" fill="#880000" style="stroke:#330000;stroke-width:1;"/><text fill="#FFFFFF" font-family="Verdana" font-size="11" lengthAdjust="spacing" textLength="222.8145" x="1362.09" y="227.277">Implements ProduceFrequency methods</text><text fill="#FFFFFF" font-family="Verdana" font-size="11" lengthAdjust="spacing" textLength="176.7788" x="1362.09" y="240.6457">declared in ProduceFrequency.h</text></g><g class="entity" data-entity="GMN25" data-source-line="54" data-uid="ent0026" id="entity_GMN25"><path d="M1355.61,349.8979 L1355.61,400.0039 L1556.3805,400.0039 L1556.3805,359.8979 L1546.3805,349.8979 L1355.61,349.8979" fill="#880000" style="stroke:#330000;stroke-width:0.5;"/><path d="M1546.3805,349.8979 L1546.3805,359.8979 L1556.3805,359.8979 L1546.3805,349.8979" fill="#880000" style="stroke:#330000;stroke-width:1;"/><text fill="#FFFFFF" font-family="Verdana" font-size="11" lengthAdjust="spacing" textLength="66.1611" x="1361.61" y="365.957">Entry point:</text><text fill="#FFFFFF" font-family="Verdana" font-size="11" lengthAdjust="spacing" textLength="179.7705" x="1361.61" y="379.3257">- Instantiates ProduceFrequency</text><text fill="#FFFFFF" font-family="Verdana" font-size="11" lengthAdjust="spacing" textLength="100.0903" x="1361.61" y="392.6943">- Calls RunMenu()</text></g><!--link MainFile to HeaderFile--><g class="link" data-entity-1="MainFile" data-entity-2="HeaderFile" data-source-line="45" data-uid="lnk20" id="link_MainFile_HeaderFile"><path d="M1046.9,251.7379 C1031.31,278.9979 1007.3491,320.8898 991.8591,347.9698" fill="none" id="MainFile-to-HeaderFile" style="stroke:#FFFFFF;stroke-width:1;"/><polygon fill="#FFFFFF" points="988.88,353.1779,996.8208,347.3518,991.3626,348.8378,989.8766,343.3796,988.88,353.1779" style="stroke:#FFFFFF;stroke-width:1;"/><polygon fill="none" points="1033.76,286.2679,1037.76,290.2679,1033.76,294.2679,1029.76,290.2679" style="stroke:#B38D22;stroke-width:1;"/><text fill="#BBBBBB" font-family="Verdana" font-size="11" lengthAdjust="spacing" textLength="39.0962" x="1041.76" y="295.6427">include</text></g><!--link SourceFile to HeaderFile--><g class="link" data-entity-1="SourceFile" data-entity-2="HeaderFile" data-source-line="46" data-uid="lnk21" id="link_SourceFile_HeaderFile"><path d="M904.9,251.7179 C910.93,265.5079 919.36,283.7579 928,299.2679 C938.42,317.9679 948.427,333.2732 958.587,347.9632" fill="none" id="SourceFile-to-HeaderFile" style="stroke:#FFFFFF;stroke-width:1;"/><polygon fill="#FFFFFF" points="962,352.8979,960.1703,343.2205,959.1558,348.7856,953.5907,347.7712,962,352.8979" style="stroke:#FFFFFF;stroke-width:1;"/><polygon fill="none" points="934,286.2679,938,290.2679,934,294.2679,930,290.2679" style="stroke:#B38D22;stroke-width:1;"/><text fill="#BBBBBB" font-family="Verdana" font-size="11" lengthAdjust="spacing" textLength="39.0962" x="942" y="295.6427">include</text></g><!--link SourceFile to GMN22--><g class="link" data-entity-1="SourceFile" data-entity-2="GMN22" data-source-line="49" data-uid="lnk24" id="link_SourceFile_GMN22"><path d="M902.02,207.4679 C914.6,166.6179 948.07,81.2579 1013.5,57.0479 C1043.2,46.0679 1268.8,46.0679 1298.5,57.0479 C1378.16,86.5179 1441.29,172.3979 1466.33,210.7279" fill="none" id="SourceFile-GMN22" style="stroke:#FFFFFF;stroke-width:1;stroke-dasharray:7,7;"/></g><!--link MainFile to GMN25--><g class="link" data-entity-1="MainFile" data-entity-2="GMN25" data-source-line="54" data-uid="lnk27" id="link_MainFile_GMN25"><path d="M1095.55,251.6279 C1110.31,259.6379 1127.69,268.4679 1144,275.2679 C1216.1,305.3379 1300.75,331.5779 1363.68,349.4279" fill="none" id="MainFile-GMN25" style="stroke:#FFFFFF;stroke-width:1;stroke-dasharray:7,7;"/></g><!--SRC=[VLDDRzim3BtxLt0UiBQ71DkEFUomTaLpA3Oakmr3e4YqhLQMD8dQMWpvxwCSExFhjBhO8X_Ve_ZnXXfi4G8g5J36XHBXWIy5QJ88tuAxHqcmeP0afO3m3cuqEzPe16bdOwDzB8epM3j7u8Ly43KM_HVA8JvxI_XR5C3d3Au52QYSKHWwo-4NIiNs38F-L5cglDfy_F1-srDjlpS1SRkoFj4sfxAaHogxYFr0_pKHUmVMynej1a6eEhvuCP5q7NOkMWNybT3AfoKdzOp_siau4FpHr83IeWwYZH3JxjIp63zH6EnzsDWtoY0dk_IfDUMBtlYxFkNac1S3isyIjfy-RcMbIGfFjKSVNEDqVt1RL99uSonNynD4X5iK79BxCsNV17cAEGRvEglqlkFTk1JOFl1su5PeUmJSyMKk-pbfeoOjmqUKYSIkHmw9x39mFWt-aCznA8Q1sEVHxnOYO8M1NVbll1f3Fh1OV1fL1IxXRL_Eul-RNW4LrX5pwxeXSDMq3glM6rvYIn6U5mvQfCQfo2Y5qWXURT0Mvbqhq2h86htIpX6vDakDAlh5KdW2xxIbIxukU5WY2KkQjskktI6kX34HridUeKtd5qUPVm00]--></g></svg>