<svg xmlns="http://www.w3.org/2000/svg" xmlns:xlink="http://www.w3.org/1999/xlink" contentStyleType="text/css" data-diagram-type="CLASS" height="556px" preserveAspectRatio="none" style="width:1021px;height:556px;background:#777777;" version="1.1" viewBox="0 0 1021 556" width="1021px" zoomAndPan="magnify"><title>Produce Purchase Frequency Analyzer</title><defs/><g><rect fill="#777777" height="556" style="stroke:none;stroke-width:1;" width="1021" x="0" y="0"/><g class="title" data-source-line="2"><text fill="#000000" font-family="sans-serif" font-size="14" font-weight="bold" lengthAdjust="spacing" textLength="265.327" x="370.8365" y="24.9659">Produce Purchase Frequency Analyzer</text></g><!--cluster Header File: ProduceFrequency--><g class="cluster" data-entity="Header File. ProduceFrequency" data-source-line="6" data-uid="ent0004" id="cluster_Header File. ProduceFrequency"><path d="M312.5,233.6699 L530.3557,233.6699 A3.75,3.75 0 0 1 532.8557,236.1699 L539.8557,258.7378 L677.5,258.7378 A2.5,2.5 0 0 1 680,261.2378 L680,546.9899 A2.5,2.5 0 0 1 677.5,549.4899 L312.5,549.4899 A2.5,2.5 0 0 1 310,546.9899 L310,236.1699 A2.5,2.5 0 0 1 312.5,233.6699" fill="none" style="stroke:#000000;stroke-width:1.5;"/><line style="stroke:#000000;stroke-width:1.5;" x1="310" x2="539.8557" y1="258.7378" y2="258.7378"/><text fill="#000000" font-family="sans-serif" font-size="14" font-weight="bold" lengthAdjust="spacing" textLength="216.8557" x="314" y="250.6358">Header File: ProduceFrequency</text></g><!--cluster h--><g class="cluster" data-entity="h" data-source-line="5" data-uid="ent0002" id="cluster_h"><path d="M336.5,279.6699 L346.5895,279.6699 A3.75,3.75 0 0 1 349.0895,282.1699 L356.0895,304.7378 L653.5,304.7378 A2.5,2.5 0 0 1 656,307.2378 L656,522.9899 A2.5,2.5 0 0 1 653.5,525.4899 L336.5,525.4899 A2.5,2.5 0 0 1 334,522.9899 L334,282.1699 A2.5,2.5 0 0 1 336.5,279.6699" fill="none" style="stroke:#000000;stroke-width:1.5;"/><line style="stroke:#000000;stroke-width:1.5;" x1="334" x2="356.0895" y1="304.7378" y2="304.7378"/><text fill="#000000" font-family="sans-serif" font-size="14" font-weight="bold" lengthAdjust="spacing" textLength="9.0895" x="338" y="296.6358">h</text></g><!--cluster Source File: ProduceFrequency--><g class="cluster" data-entity="Source File. ProduceFrequency" data-source-line="36" data-uid="ent0011" id="cluster_Source File. ProduceFrequency"><path d="M706.5,284.4699 L921.1497,284.4699 A3.75,3.75 0 0 1 923.6497,286.9699 L930.6497,309.5378 L1011.5,309.5378 A2.5,2.5 0 0 1 1014,312.0378 L1014,496.1899 A2.5,2.5 0 0 1 1011.5,498.6899 L706.5,498.6899 A2.5,2.5 0 0 1 704,496.1899 L704,286.9699 A2.5,2.5 0 0 1 706.5,284.4699" fill="none" style="stroke:#000000;stroke-width:1.5;"/><line style="stroke:#000000;stroke-width:1.5;" x1="704" x2="930.6497" y1="309.5378" y2="309.5378"/><text fill="#000000" font-family="sans-serif" font-size="14" font-weight="bold" lengthAdjust="spacing" textLength="213.6497" x="708" y="301.4358">Source File: ProduceFrequency</text></g><!--cluster cpp--><g class="cluster" data-entity="cpp" data-source-line="22" data-uid="ent0005" id="cluster_cpp"><path d="M730.5,330.4699 L756.7524,330.4699 A3.75,3.75 0 0 1 759.2524,332.9699 L766.2524,355.5378 L987.5,355.5378 A2.5,2.5 0 0 1 990,358.0378 L990,472.1899 A2.5,2.5 0 0 1 987.5,474.6899 L730.5,474.6899 A2.5,2.5 0 0 1 728,472.1899 L728,332.9699 A2.5,2.5 0 0 1 730.5,330.4699" fill="none" style="stroke:#000000;stroke-width:1.5;"/><line style="stroke:#000000;stroke-width:1.5;" x1="728" x2="766.2524" y1="355.5378" y2="355.5378"/><text fill="#000000" font-family="sans-serif" font-size="14" font-weight="bold" lengthAdjust="spacing" textLength="25.2524" x="732" y="347.4358">cpp</text></g><!--cluster main--><g class="cluster" data-entity="main" data-source-line="36" data-uid="ent0012" id="cluster_main"><path d="M8.5,46.6699 L44.4579,46.6699 A3.75,3.75 0 0 1 46.9579,49.1699 L53.9579,71.7378 L283.5,71.7378 A2.5,2.5 0 0 1 286,74.2378 L286,476.1299 A2.5,2.5 0 0 1 283.5,478.6299 L8.5,478.6299 A2.5,2.5 0 0 1 6,476.1299 L6,49.1699 A2.5,2.5 0 0 1 8.5,46.6699" fill="none" style="stroke:#000000;stroke-width:1.5;"/><line style="stroke:#000000;stroke-width:1.5;" x1="6" x2="53.9579" y1="71.7378" y2="71.7378"/><text fill="#000000" font-family="sans-serif" font-size="14" font-weight="bold" lengthAdjust="spacing" textLength="34.9579" x="10" y="63.6358">main</text></g><!--cluster cpp--><g class="cluster" data-entity="cpp" data-source-line="35" data-uid="ent0009" id="cluster_cpp"><path d="M32.5,92.6699 L58.7524,92.6699 A3.75,3.75 0 0 1 61.2524,95.1699 L68.2524,117.7378 L259.5,117.7378 A2.5,2.5 0 0 1 262,120.2378 L262,452.1299 A2.5,2.5 0 0 1 259.5,454.6299 L32.5,454.6299 A2.5,2.5 0 0 1 30,452.1299 L30,95.1699 A2.5,2.5 0 0 1 32.5,92.6699" fill="none" style="stroke:#000000;stroke-width:1.5;"/><line style="stroke:#000000;stroke-width:1.5;" x1="30" x2="68.2524" y1="117.7378" y2="117.7378"/><text fill="#000000" font-family="sans-serif" font-size="14" font-weight="bold" lengthAdjust="spacing" textLength="25.2524" x="34" y="109.6358">cpp</text></g><!--class ProduceFrequency--><g class="entity" data-entity="ProduceFrequency" data-source-line="6" data-uid="ent0003" id="entity_ProduceFrequency"><rect fill="#2E2E2E" height="191.8189" rx="2.5" ry="2.5" style="stroke:#1B1B1B;stroke-width:0.5;" width="290.3091" x="349.85" y="317.6699"/><ellipse cx="440.8847" cy="330.6699" fill="#880000" rx="8" ry="8" style="stroke:#181818;stroke-width:1;"/><path d="M441.5253,334.8261 Q440.6347,334.8261 439.8691,334.5605 Q439.1191,334.2949 438.5722,333.7793 Q438.0409,333.2636 437.7284,332.4824 Q437.4316,331.7011 437.4316,330.6855 Q437.4316,329.7324 437.7128,328.9668 Q438.0097,328.1855 438.5566,327.623 Q439.0722,327.0918 439.8378,326.8105 Q440.6191,326.5136 441.5253,326.5136 Q442.0253,326.5136 442.4316,326.5761 Q442.8378,326.623 443.1816,326.7168 Q443.5409,326.8261 443.8378,326.9511 Q444.1347,327.0761 444.3534,327.1855 L444.3534,329.123 L444.1191,329.123 Q443.9628,328.998 443.7284,328.8261 Q443.5097,328.6386 443.2128,328.4668 Q442.9159,328.2949 442.5722,328.1855 Q442.2284,328.0605 441.8378,328.0605 Q441.4003,328.0605 441.0097,328.2011 Q440.6191,328.3261 440.2909,328.6543 Q439.9784,328.9511 439.7753,329.4668 Q439.5878,329.9668 439.5878,330.6855 Q439.5878,331.4355 439.7909,331.9511 Q440.0097,332.4511 440.3222,332.7324 Q440.6503,333.0293 441.0566,333.1543 Q441.4628,333.2793 441.8534,333.2793 Q442.2284,333.2793 442.5878,333.1699 Q442.9628,333.0605 443.2753,332.8574 Q443.5409,332.7168 443.7597,332.5449 Q443.9941,332.3574 444.1347,332.2324 L444.3534,332.2324 L444.3534,334.1386 Q444.0566,334.2793 443.7753,334.4043 Q443.5097,334.5136 443.1972,334.5918 Q442.8066,334.7011 442.4628,334.7636 Q442.1191,334.8261 441.5253,334.8261 Z " fill="#000000"/><text fill="#AAAAAA" font-family="Verdana" font-size="11" lengthAdjust="spacing" textLength="101.2397" x="456.8847" y="335.0447">ProduceFrequency</text><line style="stroke:#1B1B1B;stroke-width:0.5;" x1="350.85" x2="639.1591" y1="343.6699" y2="343.6699"/><rect fill="none" height="6" style="stroke:#C82930;stroke-width:1;" width="6" x="357.85" y="353.1608"/><text fill="#AAAAAA" font-family="sans-serif" font-size="11" lengthAdjust="spacing" textLength="224.4424" x="366.85" y="359.4288">std::map&lt;std::string, int&gt; m_itemFrequency</text><rect fill="none" height="6" style="stroke:#C82930;stroke-width:1;" width="6" x="357.85" y="368.1427"/><text fill="#AAAAAA" font-family="sans-serif" font-size="11" lengthAdjust="spacing" textLength="145.892" x="366.85" y="374.4107">std::string m_inputFileName</text><rect fill="none" height="6" style="stroke:#C82930;stroke-width:1;" width="6" x="357.85" y="383.1246"/><text fill="#AAAAAA" font-family="sans-serif" font-size="11" lengthAdjust="spacing" textLength="156.3749" x="366.85" y="389.3926">std::string m_backupFileName</text><line style="stroke:#1B1B1B;stroke-width:0.5;" x1="350.85" x2="639.1591" y1="396.6156" y2="396.6156"/><ellipse cx="360.85" cy="409.1065" fill="#84BE84" rx="3" ry="3" style="stroke:#038048;stroke-width:1;"/><text fill="#AAAAAA" font-family="sans-serif" font-size="11" lengthAdjust="spacing" textLength="103.4102" x="366.85" y="412.3745">ProduceFrequency()</text><ellipse cx="360.85" cy="424.0884" fill="#84BE84" rx="3" ry="3" style="stroke:#038048;stroke-width:1;"/><text fill="#AAAAAA" font-family="sans-serif" font-size="11" lengthAdjust="spacing" textLength="125.7841" x="366.85" y="427.3564">void LoadDataFromFile()</text><ellipse cx="360.85" cy="439.0703" fill="#84BE84" rx="3" ry="3" style="stroke:#038048;stroke-width:1;"/><text fill="#AAAAAA" font-family="sans-serif" font-size="11" lengthAdjust="spacing" textLength="267.3091" x="366.85" y="442.3382">int GetItemFrequency(const std::string&amp; item) const</text><ellipse cx="360.85" cy="454.0522" fill="#84BE84" rx="3" ry="3" style="stroke:#038048;stroke-width:1;"/><text fill="#AAAAAA" font-family="sans-serif" font-size="11" lengthAdjust="spacing" textLength="162.2598" x="366.85" y="457.3201">void PrintAllFrequencies() const</text><ellipse cx="360.85" cy="469.0341" fill="#84BE84" rx="3" ry="3" style="stroke:#038048;stroke-width:1;"/><text fill="#AAAAAA" font-family="sans-serif" font-size="11" lengthAdjust="spacing" textLength="141.591" x="366.85" y="472.302">void PrintHistogram() const</text><ellipse cx="360.85" cy="484.0159" fill="#84BE84" rx="3" ry="3" style="stroke:#038048;stroke-width:1;"/><text fill="#AAAAAA" font-family="sans-serif" font-size="11" lengthAdjust="spacing" textLength="145.551" x="366.85" y="487.2839">void WriteBackupFile() const</text><ellipse cx="360.85" cy="498.9978" fill="#84BE84" rx="3" ry="3" style="stroke:#038048;stroke-width:1;"/><text fill="#AAAAAA" font-family="sans-serif" font-size="11" lengthAdjust="spacing" textLength="81.5204" x="366.85" y="502.2658">void RunMenu()</text></g><g class="entity" data-entity="GMN6" data-source-line="25" data-uid="ent0007" id="entity_GMN6"><path d="M743.75,368.4699 L743.75,409.5799 L640.39,413.5799 L743.75,417.5799 L743.75,458.6818 A0,0 0 0 0 743.75,458.6818 L974.2495,458.6818 A0,0 0 0 0 974.2495,458.6818 L974.2495,378.4699 L964.2495,368.4699 L743.75,368.4699 A0,0 0 0 0 743.75,368.4699" fill="#880000" style="stroke:#330000;stroke-width:0.5;"/><path d="M964.2495,368.4699 L964.2495,378.4699 L974.2495,378.4699 L964.2495,368.4699" fill="#880000" style="stroke:#330000;stroke-width:0.5;"/><text fill="#FFFFFF" font-family="Verdana" font-size="11" lengthAdjust="spacing" textLength="189.6694" x="749.75" y="384.529">Defined in ProduceFrequency.cpp:</text><text fill="#FFFFFF" font-family="Verdana" font-size="11" lengthAdjust="spacing" textLength="172.1328" x="749.75" y="397.8976">- Loads data from file into map</text><text fill="#FFFFFF" font-family="Verdana" font-size="11" lengthAdjust="spacing" textLength="151.6904" x="749.75" y="411.2663">- Handles string conversion</text><text fill="#FFFFFF" font-family="Verdana" font-size="11" lengthAdjust="spacing" textLength="122.1333" x="749.75" y="424.6349">- Backs up data to file</text><text fill="#FFFFFF" font-family="Verdana" font-size="11" lengthAdjust="spacing" textLength="209.4995" x="749.75" y="438.0036">- Outputs frequencies and histograms</text><text fill="#FFFFFF" font-family="Verdana" font-size="11" lengthAdjust="spacing" textLength="141.2866" x="749.75" y="451.3722">- Interacts via user menu</text></g><!--class main--><g class="entity" data-entity="main" data-source-line="36" data-uid="ent0010" id="entity_main"><rect fill="#2E2E2E" height="42" rx="2.5" ry="2.5" style="stroke:#1B1B1B;stroke-width:0.5;" width="53.2852" x="165.36" y="130.6699"/><ellipse cx="177.36" cy="143.6699" fill="#880000" rx="8" ry="8" style="stroke:#181818;stroke-width:1;"/><path d="M178.0006,147.8261 Q177.11,147.8261 176.3444,147.5605 Q175.5944,147.2949 175.0475,146.7793 Q174.5163,146.2636 174.2038,145.4824 Q173.9069,144.7011 173.9069,143.6855 Q173.9069,142.7324 174.1881,141.9668 Q174.485,141.1855 175.0319,140.623 Q175.5475,140.0918 176.3131,139.8105 Q177.0944,139.5136 178.0006,139.5136 Q178.5006,139.5136 178.9069,139.5761 Q179.3131,139.623 179.6569,139.7168 Q180.0163,139.8261 180.3131,139.9511 Q180.61,140.0761 180.8288,140.1855 L180.8288,142.123 L180.5944,142.123 Q180.4381,141.998 180.2038,141.8261 Q179.985,141.6386 179.6881,141.4668 Q179.3913,141.2949 179.0475,141.1855 Q178.7038,141.0605 178.3131,141.0605 Q177.8756,141.0605 177.485,141.2011 Q177.0944,141.3261 176.7663,141.6543 Q176.4538,141.9511 176.2506,142.4668 Q176.0631,142.9668 176.0631,143.6855 Q176.0631,144.4355 176.2663,144.9511 Q176.485,145.4511 176.7975,145.7324 Q177.1256,146.0293 177.5319,146.1543 Q177.9381,146.2793 178.3288,146.2793 Q178.7038,146.2793 179.0631,146.1699 Q179.4381,146.0605 179.7506,145.8574 Q180.0163,145.7168 180.235,145.5449 Q180.4694,145.3574 180.61,145.2324 L180.8288,145.2324 L180.8288,147.1386 Q180.5319,147.2793 180.2506,147.4043 Q179.985,147.5136 179.6725,147.5918 Q179.2819,147.7011 178.9381,147.7636 Q178.5944,147.8261 178.0006,147.8261 Z " fill="#000000"/><text fill="#AAAAAA" font-family="Verdana" font-size="11" lengthAdjust="spacing" textLength="27.2852" x="188.36" y="148.0447">main</text><line style="stroke:#1B1B1B;stroke-width:0.5;" x1="166.36" x2="217.6452" y1="156.6699" y2="156.6699"/><line style="stroke:#1B1B1B;stroke-width:0.5;" x1="166.36" x2="217.6452" y1="164.6699" y2="164.6699"/></g><g class="entity" data-entity="GMN14" data-source-line="41" data-uid="ent0015" id="entity_GMN14"><path d="M45.61,388.5299 L45.61,438.6359 A0,0 0 0 0 45.61,438.6359 L246.3805,438.6359 A0,0 0 0 0 246.3805,438.6359 L246.3805,398.5299 L236.3805,388.5299 L154.32,388.5299 L188.39,173.0699 L146.32,388.5299 L45.61,388.5299 A0,0 0 0 0 45.61,388.5299" fill="#880000" style="stroke:#330000;stroke-width:0.5;"/><path d="M236.3805,388.5299 L236.3805,398.5299 L246.3805,398.5299 L236.3805,388.5299" fill="#880000" style="stroke:#330000;stroke-width:0.5;"/><text fill="#FFFFFF" font-family="Verdana" font-size="11" lengthAdjust="spacing" textLength="66.1611" x="51.61" y="404.589">Entry point:</text><text fill="#FFFFFF" font-family="Verdana" font-size="11" lengthAdjust="spacing" textLength="179.7705" x="51.61" y="417.9576">- Instantiates ProduceFrequency</text><text fill="#FFFFFF" font-family="Verdana" font-size="11" lengthAdjust="spacing" textLength="100.0903" x="51.61" y="431.3263">- Calls RunMenu()</text></g><!--link main to ProduceFrequency--><g class="link" data-entity-1="main" data-entity-2="ProduceFrequency" data-source-line="38" data-uid="lnk13" id="link_main_ProduceFrequency"><path codeLine="38" d="M215.78,173.0699 C251.84,203.9999 318.1061,260.8432 379.3961,313.4232" fill="none" id="main-to-ProduceFrequency" style="stroke:#FFFFFF;stroke-width:1;"/><polygon fill="#FFFFFF" points="383.95,317.3299,379.7237,308.4339,380.1551,314.0743,374.5147,314.5057,383.95,317.3299" style="stroke:#FFFFFF;stroke-width:1;"/><text fill="#BBBBBB" font-family="Verdana" font-size="11" lengthAdjust="spacing" textLength="93.3335" x="266.22" y="214.729">creates and uses</text></g><!--SRC=[VLFRZjCm47tFLmpxGBk2yW4HMcbXAQt4mWeUzX7DnjF6R68RUrofe9Nu2BwGBs6SMzEMa1SdcUFZCtEEdt59DO4dfJo5i53e7-KZOyqLmPstAXQoHb-K60YMdhv7CiKUhWrM-n_aism6Aq957ZPQjZWi7d5BMRV2HLTSIZ7l2GUQL-K5_Cn0dgB24CxgNJ4z2mYiyhn6zxfv2UorsRu4RVWAwg-QgHwsdMvgiGbbNEGavIFMD8bw4EtH3R01z-9Ct_noLDnPhU23HNM3Z4jlwyHmX12jy9vuFTOwBwm9F5Rm758pbz0KJldl1C7NLTNlrnJc_uEkT62xzLXFeUwzdFPcw7WAzZcQMpAnQ-SfUqh6hsjNINmC8sjh9WBmnKfwQ2e0XNDz16PmJw2icJ4O8WK8WHnwPEhIKP8d-FFhDtoBCZ44Opb5ToE_PH1YdOGPz96cXhZ5wMt9O3Td4ePERsYZZPohpJzbvgEy99S3AF4PDc9qsxbCsuBaSuHReL4L1UYY9PFTaG-zhXQJPXyWkfPEA1BPgFufieGso463uo2qKFREXX5uRPWy5WBVQOGOvER9B6A38DcKHj5wTulIf_CDWvJOxy5PQU5WN2s8iJ-j2UblUoNI6omML-UtDeV2a_ZM2XKL8JiOyM2PPMJYH4FLQtzta90VDHGO3Uk6RTAw1Rp5gWedAHqr_1S0]--></g></svg>